<!-- icon666.com - MILLIONS vector ICONS FREE --><svg id="Layer_5" enable-background="new 0 0 64 64" viewBox="0 0 64 64" xmlns="http://www.w3.org/2000/svg" xmlns:xlink="http://www.w3.org/1999/xlink"><linearGradient id="SVGID_1_" gradientUnits="userSpaceOnUse" x1="32" x2="32" y1="63" y2="1"><stop offset="0" stop-color="#9f2fff"></stop><stop offset="1" stop-color="#0bb1d3"></stop></linearGradient><path d="m55.326 46.578 1.812.845c-2.639 5.662-7.846 9.823-13.928 11.131l-.421-1.955c5.475-1.178 10.161-4.924 12.537-10.021zm.727-1.812 1.894.643c.244-.717.448-1.457.607-2.198l-1.955-.42c-.144.666-.328 1.33-.546 1.975zm2.068-20.535c3.146 4.148 4.879 9.3 4.879 14.506v.263c0 13.233-10.766 24-24 24-6.087 0-11.947-2.338-16.37-6.462-1.1 3.73-4.549 6.462-8.63 6.462-4.962 0-9-4.038-9-9v-27h-1c-1.654 0-3-1.346-3-3v-2c0-1.654 1.346-3 3-3h1v-5c0-1.654 1.346-3 3-3h12c1.654 0 3 1.346 3 3v5h.848l12.751-16.808c.567-.746 1.464-1.192 2.401-1.192s1.834.446 2.401 1.192zm-51.121-5.231h14v-5c0-.551-.449-1-1-1h-1v4h-2v-4h-2v4h-2v-4h-2v4h-2v-4h-1c-.551 0-1 .449-1 1zm-3 6h20c.551 0 1-.449 1-1v-2c0-.551-.449-1-1-1h-20c-.551 0-1 .449-1 1v2c0 .551.449 1 1 1zm17 23.976c-.069-.374-1.464-1.976-4-1.976-1.341 0-2.967.739-4.659 2.104 1.57 1.017 3.159 1.896 4.659 1.896 2.536 0 3.931-1.602 4-2.019zm-14-21.976v19.131c1.169.282 2.364 1 3.603 1.818 1.68-1.449 3.999-2.949 6.397-2.949 1.582 0 2.961.496 4 1.185v-3.185h-4v-2h4v-2h-6v-2h6v-2h-4v-2h4v-2h-6v-2h6v-2zm14 27v-2.185c-1.039.689-2.418 1.185-4 1.185-2.448 0-4.778-1.561-6.833-2.938-1.143-.765-2.236-1.494-3.167-1.843v5.781c0 3.86 3.14 7 7 7s7-3.14 7-7zm40-15.263c0-4.772-1.588-9.494-4.473-13.296l-16.719-22.04c-.381-.503-1.234-.503-1.615 0l-12.336 16.26c.691.551 1.143 1.389 1.143 2.339v2c0 1.654-1.346 3-3 3h-1v27c0 .029-.004.056-.004.085 4.147 4.397 9.953 6.915 16.004 6.915 12.131 0 22-9.869 22-22zm-26.009 14.263c-.011-.451.223-1.542 1.345-2.664l-1.414-1.414c-1.132 1.132-1.597 2.252-1.788 2.992-.283 1.101-.142 2.035.387 2.563.431.432 1.062.523 1.515.523 1.329 0 2.84-.718 4.042-1.922l-1.414-1.414c-1.012 1.012-2.137 1.339-2.673 1.336zm6.916 2.907c-2.022 2.022-4.569 3.081-6.879 3.081-1.663 0-3.202-.548-4.334-1.681-2.706-2.706-2.078-7.736 1.4-11.213s8.509-4.106 11.213-1.4c2.705 2.705 2.077 7.735-1.4 11.213zm-.014-9.8c-.754-.754-1.79-1.117-2.933-1.117-1.776 0-3.811.875-5.453 2.517-2.698 2.698-3.326 6.459-1.4 8.385s5.687 1.297 8.385-1.4 3.326-6.459 1.401-8.385zm-5.027-11.193c-.19-.74-.655-1.86-1.788-2.992l-1.414 1.414c1.122 1.122 1.356 2.212 1.345 2.664-.564 0-1.662-.324-2.673-1.335l-1.414 1.414c1.203 1.203 2.714 1.921 4.043 1.921.453 0 1.083-.091 1.513-.522.529-.529.67-1.463.388-2.564zm-1.894 7.073c-2.31 0-4.857-1.059-6.879-3.081-3.478-3.478-4.105-8.508-1.4-11.213 2.704-2.707 7.735-2.078 11.213 1.4s4.105 8.508 1.4 11.213c-1.132 1.133-2.671 1.681-4.334 1.681zm-5.465-4.494c2.698 2.697 6.458 3.325 8.385 1.4 1.926-1.926 1.298-5.688-1.4-8.385-1.642-1.641-3.677-2.517-5.453-2.517-1.143 0-2.178.363-2.933 1.117-1.924 1.925-1.296 5.687 1.401 8.385zm18.014 2.984c.431.432 1.062.523 1.515.523 1.329 0 2.84-.718 4.042-1.922l-1.414-1.414c-1.011 1.012-2.131 1.333-2.673 1.335-.011-.451.223-1.542 1.345-2.664l-1.414-1.414c-1.132 1.132-1.597 2.252-1.788 2.992-.282 1.102-.141 2.036.387 2.564zm9.786-9.784c2.706 2.706 2.078 7.736-1.4 11.213-2.022 2.022-4.569 3.081-6.879 3.081-1.663 0-3.202-.548-4.334-1.681-2.706-2.706-2.078-7.736 1.4-11.213 3.476-3.477 8.508-4.106 11.213-1.4zm-4.347.298c-1.776 0-3.811.875-5.453 2.517-2.698 2.698-3.326 6.459-1.4 8.385 1.925 1.927 5.688 1.298 8.385-1.4 2.698-2.698 3.326-6.459 1.4-8.385-.753-.754-1.789-1.117-2.932-1.117zm-21.96-12.991c0-2.757 1.794-5 4-5s4 2.243 4 5-1.794 5-4 5-4-2.243-4-5zm2 0c0 1.626.916 3 2 3s2-1.374 2-3-.916-3-2-3-2 1.374-2 3zm8 5c0-2.757 1.794-5 4-5s4 2.243 4 5-1.794 5-4 5-4-2.243-4-5zm2 0c0 1.626.916 3 2 3s2-1.374 2-3-.916-3-2-3-2 1.374-2 3z" fill="url(#SVGID_1_)"></path></svg>