<!-- icon666.com - MILLIONS vector ICONS FREE --><svg id="Layer_1" enable-background="new 0 0 510.824 510.824" viewBox="0 0 510.824 510.824" xmlns="http://www.w3.org/2000/svg"><path d="m113.476 109.854 60.822 15.689c8.165 2.106 12.836 10.48 10.688 18.635-3.474 13.19 3.676 29.727 20.5 35.795-19.801 13.807-7.848 38.555 10.54 46.72 8.566 3.806 11.283 10.399 10.225 16.593-2.675 15.668 6.939 33.376 24.865 39.697 85.658 30.239 113.742 43.84 165.76 43.84 19.644 0 38.63 6.852 53.82 19.49 9.77 8.139 24.62 1.202 24.62-11.534 0-143.857.776-134.534-1.834-139.317-18.307-33.552-38.024-74.908-93.306-108.889-23.537-13.732-48.606-39.278-64.09-70.32-9.812-24.5-93.592 2.561 12.44 93.77 2.46 2.11.37 6.08-2.76 5.26l-218.06-53.04c-31.796-10.09-46.491 38.603-14.23 47.611z" fill="#ffc298"></path><path d="m71.316 199.28c0 17.673 14.327 32 32 32s32-14.327 32-32c0-11.23-12.921-30.8-22.342-43.576-4.798-6.506-14.519-6.506-19.317 0-9.42 12.776-22.341 32.346-22.341 43.576z" fill="#e44450"></path><path d="m31.316 270.824h144c21.151 0 21.183 32 0 32h-16v144c0 30.928-25.072 56-56 56-30.928 0-56-25.072-56-56v-144h-16c-21.151 0-21.183-32 0-32z" fill="#bde5ec"></path><path d="m502.338 194.993c-17.884-32.777-40.19-80.764-98.322-115.443-25.885-16.136-46.207-38.344-60.809-66.95-16.571-32.834-107.539-1.074-14.2 90.375l-199.162-48.444c-16.947-5.212-35.219 4.166-40.839 21.014-5.953 17.868 4.373 37.004 22.319 42.014 1.837.512-10.227-2.637 68.674 17.717-7.632 13.486-4.07 34.728 12.201 46.671-10.281 14.754-6.552 40 27.369 55.077-2.236 7.236-2.321 14.968-.179 22.764 8.192 29.895 30.72 31.325 114.074 60.75 58.262 20.551 82.587 9.148 109.307 18.827 11.403 4.135 25.237-20.542-25.896-20.542-50.027 0-74.016-11.937-163.1-43.384-14.711-5.188-22.101-19.866-19.441-31.853 44.746 19.888 42.561 19.24 44.976 19.24 8.609 0 11.121-11.815 3.255-15.313-69.342-30.819-72.853-30.536-77.814-42.8-2.661-6.576-2.001-11.439 2.268-15.667l69.562 25.296c9.94 3.616 15.423-11.417 5.469-15.036l-73.853-26.858c-17.237-6.22-19.814-25.694-11.245-32.798l104.366 26.921c10.237 2.641 14.254-12.847 3.996-15.493-193.46-49.903-1.395-.359-189.755-48.948-20.64-5.856-13.917-38.006 10.256-32.112 232.715 56.604 224.792 58.371 230.515 47.444 2.401-4.584 1.333-10.139-2.588-13.502-15.162-13.042-50.427-46.277-50.427-73.135 0-11.924 17.74-19.389 24.964-12.004.908.938 21.86 47.823 67.564 74.484 83.715 50.011 83.918 123.118 103.304 112.542 3.879-2.116 5.308-6.976 3.191-10.854z"></path><path d="m103.316 239.28c22.056 0 40-17.944 40-40 0-10.555-8.042-26.813-23.903-48.324-8.001-10.851-24.19-10.854-32.194 0-15.861 21.51-23.903 37.768-23.903 48.323 0 22.057 17.944 40.001 40 40.001zm-3.22-78.828c1.596-2.165 4.83-2.183 6.439 0 19.282 26.15 20.781 36.331 20.781 38.828 0 31.765-48 31.725-48 0 0-2.498 1.498-12.678 20.78-38.828z"></path><path d="m175.316 262.824h-144c-31.765 0-31.725 48 0 48h8v136c0 35.29 28.71 64 64 64s64-28.71 64-64v-136h8c31.765 0 31.725-48 0-48zm-24 184c0 26.467-21.533 48-48 48s-48-21.533-48-48v-136h96zm24-152c-153.797 0-152 2.402-152-8 0-4.411 3.589-8 8-8h144c10.588 0 10.575 16 0 16z"></path></svg>