<!-- icon666.com - MILLIONS vector ICONS FREE --><svg viewBox="-20 0 496 496" xmlns="http://www.w3.org/2000/svg" xmlns:xlink="http://www.w3.org/1999/xlink"><linearGradient id="a" gradientUnits="userSpaceOnUse" x1="228" x2="228" y1="496" y2="0"><stop offset="0" stop-color="#9f2fff"></stop><stop offset="1" stop-color="#0bb1d3"></stop></linearGradient><path d="m72 216h48v-24h24v-48h-24v-24h-48v24h-24v48h24zm-8-40v-16h24v-24h16v24h24v16h-24v24h-16v-24zm32 88c52.9375 0 96-43.0625 96-96v-3.191406c0-20.5625-6.433594-40.183594-18.585938-56.777344l-77.414062-105.558594-77.414062 105.558594c-12.152344 16.585938-18.585938 36.207031-18.585938 56.777344v3.191406c0 52.9375 43.0625 96 96 96zm-80-99.191406c0-17.136719 5.359375-33.496094 15.496094-47.304688l64.503906-87.976562 64.503906 87.96875c10.136719 13.816406 15.496094 30.175781 15.496094 47.3125v3.191406c0 44.113281-35.886719 80-80 80s-80-35.886719-80-80zm320 155.191406h16v-32h24v-224h-24v-48h24v-16h-96v16h24v48h-24v224h24v32h16v16h-62.3125c-4.757812 0-9.359375-1.390625-13.3125-4.03125l-31.871094-21.25c-6.59375-4.398438-14.265625-6.71875-22.191406-6.71875h-94.3125c-13.230469 0-24 10.769531-24 24v24h-16c-13.230469 0-24 10.769531-24 24 0 6.167969 2.40625 11.742188 6.238281 16-3.839843 4.257812-6.238281 9.832031-6.238281 16s2.40625 11.742188 6.238281 16c-3.839843 4.257812-6.238281 9.832031-6.238281 16s2.40625 11.742188 6.238281 16c-3.839843 4.257812-6.238281 9.832031-6.238281 16 0 13.230469 10.769531 24 24 24h145.832031c5.136719 0 10.136719-.960938 14.847657-2.855469l28.578124-11.433593c2.839844-1.136719 5.832032-1.710938 8.910157-1.710938h201.832031v-16h-201.832031c-5.136719 0-10.136719.960938-14.847657 2.855469l-28.578124 11.433593c-2.839844 1.136719-5.832032 1.710938-8.910157 1.710938h-43.199219c.878907-2.496094 1.367188-5.191406 1.367188-8 0-6.167969-2.40625-11.742188-6.238281-16 3.839843-4.257812 6.238281-9.832031 6.238281-16s-2.40625-11.742188-6.238281-16c3.839843-4.257812 6.238281-9.832031 6.238281-16 0-2.359375-.449219-4.59375-1.089844-6.753906 21.347656 14.585937 46.683594 22.753906 73.089844 22.753906v-16c-33.246094 0-64.734375-14.480469-86.367188-39.71875l-13.953124-16.28125h-19.679688v56c0 13.230469-10.769531 24-24 24v-104c0-4.414062 3.585938-8 8-8h94.3125c4.757812 0 9.359375 1.390625 13.3125 4.03125l31.871094 21.25c6.59375 4.398438 14.265625 6.71875 22.191406 6.71875h62.3125v79.054688c-7.128906-1.910157-7.9375-6.222657-8.007812-7.277344l-7.992188.222656h-8c0 8.304688 6.6875 24 32 24s32-15.695312 32-24l-15.992188-.222656c-.070312 1.054687-.878906 5.367187-8.007812 7.277344v-79.054688h120v-16h-120zm-16-304h16v48h-16zm-24 224h40v-16h-40v-16h16v-16h-16v-16h40v-16h-40v-16h16v-16h-16v-16h40v-16h-40v-16h64v192h-64zm40 48v16h-16v-16zm-264 128h-16c-4.414062 0-8-3.585938-8-8s3.585938-8 8-8h16zm-16-48h16v16h-16c-4.414062 0-8-3.585938-8-8s3.585938-8 8-8zm80 112h-80c-4.414062 0-8-3.585938-8-8s3.585938-8 8-8h80c4.414062 0 8 3.585938 8 8s-3.585938 8-8 8zm-8-80h8c4.414062 0 8 3.585938 8 8s-3.585938 8-8 8h-8.808594c.527344-2.585938.808594-5.265625.808594-8zm0-27.703125 5.488281 6.390625c1.503907 1.761719 3.175781 3.320312 4.769531 4.984375-.730468.214844-1.488281.328125-2.257812.328125h-8zm-8 59.457031v.246094h16c4.414062 0 8 3.585938 8 8s-3.585938 8-8 8h-80c-4.414062 0-8-3.585938-8-8s3.585938-8 8-8h16c0 8.824219 7.175781 16 16 16 13.128906 0 24.703125-6.449219 32-16.246094zm0 0" fill="url(#a)"></path></svg>