<!-- icon666.com - MILLIONS vector ICONS FREE --><svg id="Capa_1" enable-background="new 0 0 512 512" viewBox="0 0 512 512" xmlns="http://www.w3.org/2000/svg"><g><g><path d="m335.955 56.259h167.676v71.861h-167.676z" fill="#586b76" transform="matrix(.707 .707 -.707 .707 188.142 -269.837)"></path></g><g><path d="m390.878 25.289h23.954v167.676h-23.954z" fill="#465961" transform="matrix(.707 -.707 .707 .707 40.829 316.824)"></path></g><g><path d="m29.04 483.964-1.023-1.023c-27.781-27.781-27.781-72.823 0-100.604l315.555-315.555 101.627 101.627-315.554 315.555c-27.782 27.781-72.824 27.781-100.605 0z" fill="#f1faff"></path></g><g><path d="m424.874 148.084-315.044 315.043c-24.583 24.583-62.544 27.629-90.446 9.144 2.617 3.951 5.664 7.701 9.144 11.181 28.064 28.063 73.563 28.064 101.627 0l315.043-315.043z" fill="#c7eefb"></path></g><g><path d="m28.529 483.452c-28.064-28.064-28.064-73.563 0-101.627l262.536-262.535 101.627 101.627-262.536 262.535c-28.064 28.064-73.564 28.064-101.627 0z" fill="#fc8086"></path></g><g><path d="m372.367 200.591-262.537 262.536c-24.583 24.583-62.544 27.629-90.446 9.144 2.617 3.951 5.664 7.701 9.144 11.181 28.064 28.063 73.563 28.064 101.627 0l262.536-262.536z" fill="#fb636f"></path></g><g><path d="m157.319 136.173h71.861v263.491h-71.861z" fill="#f1faff" transform="matrix(.707 .707 -.707 .707 246.048 -58.176)"></path></g><path d="m509.785 120.761-89.76-89.761c-.003-.003-.006-.007-.009-.01s-.007-.006-.01-.009l-28.786-28.785c-1.407-1.406-3.314-2.196-5.303-2.196s-3.897.79-5.304 2.197l-11.065 11.066c-2.929 2.929-2.929 7.678.001 10.606 2.928 2.928 7.677 2.929 10.606-.001l5.762-5.763 18.188 18.188-40.207 40.207-18.188-18.187 9.722-9.721c2.929-2.93 2.929-7.678 0-10.607-2.93-2.928-7.678-2.928-10.607 0l-15.025 15.025c-2.929 2.93-2.929 7.678 0 10.607l3.165 3.165-214.443 214.443c-2.929 2.93-2.929 7.678 0 10.607 1.465 1.464 3.385 2.196 5.304 2.196s3.839-.732 5.304-2.196l131.87-131.871 40.208 40.207-175.71 175.709-40.206-40.207 18.975-18.975c2.929-2.93 2.929-7.678 0-10.607-2.93-2.928-7.678-2.928-10.607 0l-70.434 70.434c-30.942 30.943-30.942 81.291 0 112.234 14.989 14.989 34.918 23.244 56.117 23.244s41.128-8.255 56.117-23.244l160.909-160.909c2.929-2.93 2.929-7.678 0-10.607-2.93-2.928-7.678-2.928-10.607 0l-160.91 160.908c-25.094 25.096-65.926 25.096-91.02 0-25.095-25.094-25.095-65.926 0-91.02l40.852-40.852 45.51 45.51c1.465 1.464 3.385 2.196 5.304 2.196s3.839-.732 5.304-2.196l186.316-186.315c1.406-1.407 2.196-3.314 2.196-5.304s-.79-3.896-2.196-5.304l-45.51-45.51 19.458-19.458 91.02 91.02-71.486 71.486c-2.929 2.93-2.929 7.678 0 10.607 1.465 1.464 3.385 2.196 5.304 2.196s3.839-.732 5.304-2.196l123.993-123.993 3.165 3.165c1.465 1.464 3.385 2.196 5.304 2.196s3.839-.732 5.304-2.196l50.813-50.813c2.927-2.929 2.927-7.677-.002-10.606zm-104.793-3.165 40.207-40.207 19.881 19.881-40.207 40.207zm9.72-70.695 19.88 19.88-40.207 40.207-19.88-19.88zm-22.02 163.408-91.02-91.02 41.899-41.899 91.02 91.02zm60.976-44.038-18.187-18.187 40.207-40.207 18.187 18.187z"></path></g></svg>