<!-- icon666.com - MILLIONS vector ICONS FREE --><svg id="Capa_1" enable-background="new 0 0 425.2 425.2" viewBox="0 0 425.2 425.2" xmlns="http://www.w3.org/2000/svg"><g><path d="m333.695 256.354c-1.51-1.478-3.934-1.452-5.411.06-1.478 1.51-1.452 3.934.06 5.411l77.055 75.388c15.955 15.612 16.235 41.294.626 57.25l-7.747 7.918c-7.561 7.729-17.68 12.052-28.495 12.17-.152.001-.306.002-.457.002-10.645 0-20.679-4.089-28.298-11.543l-29.958-29.311 47.451-48.505c.709-.726 1.104-1.704 1.091-2.719-.011-1.016-.427-1.985-1.153-2.695l-212.345-207.29c-1.51-1.474-3.931-1.448-5.408.063l-47.225 48.271-35.512-34.744 13.557-13.856c.003-.002.005-.004.007-.006s.004-.006.007-.008l12.405-12.682c.003-.001.005-.002.005-.003 0 0 .002-.003.004-.005l12.408-12.683c0-.001 0-.001 0-.001v-.001l8.726-8.918 16.1-16.455c0-.001.002-.002.005-.004.002-.002.002-.004.004-.005l1.15-1.177 165.536 161.121c1.517 1.473 3.938 1.442 5.411-.073 1.476-1.515 1.441-3.938-.072-5.41l-165.523-161.107 5.985-6.119c.711-.725 1.102-1.703 1.091-2.717-.01-1.016-.425-1.983-1.15-2.694l-40.059-39.191c-1.51-1.478-3.934-1.452-5.411.061l-87.06 88.987c-.709.726-1.102 1.703-1.091 2.718.013 1.016.425 1.983 1.15 2.693l40.059 39.19c.743.729 1.71 1.092 2.676 1.092.992 0 1.985-.385 2.735-1.151l5.993-6.125 37.642 36.827c.156.239.329.467.536.67l68.249 66.624 176.633 172.808c9.06 8.864 20.988 13.727 33.644 13.726.182 0 .365-.001.545-.003 12.858-.142 24.894-5.28 33.883-14.472l7.747-7.917c18.561-18.972 18.228-49.509-.745-68.072zm-302.977-164.581c-1.512-1.479-3.934-1.452-5.411.06-1.478 1.511-1.449 3.933.061 5.41l25.602 25.049-7.138 7.297-34.591-33.839 81.71-83.518 34.587 33.84-5.985 6.118c-.004.004-.006.005-.008.007l-1.149 1.174-25.602-25.049c-1.51-1.478-3.934-1.453-5.411.06-1.478 1.51-1.45 3.933.06 5.411l25.603 25.049-7.063 7.219-25.604-25.049c-1.51-1.479-3.934-1.452-5.411.06-1.478 1.51-1.452 3.933.06 5.411l25.603 25.049-7.063 7.22-25.604-25.05c-1.512-1.478-3.934-1.453-5.411.06-1.478 1.511-1.449 3.934.061 5.411l25.604 25.049-7.062 7.218-25.606-25.05c-1.51-1.478-3.934-1.452-5.411.06-1.478 1.511-1.45 3.934.06 5.411l25.604 25.048-7.065 7.223-25.605-25.05c-1.51-1.478-3.934-1.453-5.411.06-1.478 1.511-1.45 3.934.06 5.411l25.604 25.048-2.336 2.389-4.728 4.832zm133.352 138.11-65.118-63.707 44.551-45.54 206.869 201.944-44.622 45.611z"></path><path d="m298.678 227.451c-1.478 1.509-1.449 3.933.061 5.41l18.19 17.797c.745.729 1.71 1.091 2.676 1.091.992 0 1.985-.384 2.735-1.15 1.478-1.511 1.449-3.934-.061-5.411l-18.19-17.797c-1.51-1.478-3.933-1.453-5.411.06z"></path><path d="m235.26 226.413c-1.513-1.478-3.936-1.452-5.413.059l-25.613 26.176c-1.478 1.511-1.45 3.934.06 5.412.745.728 1.711 1.091 2.676 1.091.993 0 1.985-.384 2.735-1.149l25.613-26.176c1.477-1.512 1.451-3.934-.058-5.413z"></path><path d="m292.271 282.189c-1.51-1.478-3.934-1.452-5.411.06l-25.611 26.18c-1.478 1.512-1.452 3.934.06 5.411.746.729 1.711 1.092 2.676 1.092.993 0 1.986-.385 2.735-1.151l25.611-26.18c1.477-1.511 1.448-3.934-.06-5.412z"></path><path d="m224.752 216.384c-.998-1.862-3.314-2.567-5.181-1.566l-24.107 12.91 12.38-24.389c.957-1.885.203-4.188-1.68-5.145-1.886-.956-4.188-.204-5.145 1.681l-17.89 35.238c-.756 1.489-.457 3.298.736 4.467.732.717 1.7 1.092 2.678 1.092.615 0 1.236-.148 1.805-.454l34.836-18.655c1.864-.998 2.565-3.317 1.568-5.179z"></path><path d="m190.332 182.441c-2.197-2.15-5.192-3.287-8.66-3.287-5.793 0-12.381 3.194-17.619 8.547-3.909 3.996-6.641 8.753-7.691 13.396-1.183 5.229-.087 9.965 3.007 12.99 2.195 2.148 5.191 3.284 8.656 3.284 5.796 0 12.383-3.195 17.621-8.549 8.677-8.872 10.738-20.461 4.686-26.381zm-22.308 27.278c-1.445 0-2.558-.37-3.305-1.102-1.153-1.126-1.479-3.251-.896-5.83.732-3.233 2.811-6.781 5.699-9.734 3.771-3.852 8.426-6.245 12.148-6.245 1.445 0 2.558.371 3.308 1.104 2.513 2.458.992 9.636-4.805 15.56-3.77 3.853-8.424 6.247-12.149 6.247z"></path><path d="m312.527 301.989c-2.739-2.678-6.405-4.152-10.324-4.152-4.285 0-8.507 1.804-11.586 4.948-6.126 6.266-6.265 16.1-.312 21.922 1.852 1.813 4.134 3.059 6.628 3.685-6.111 5.118-9.099 2.195-10.779.554-2.235-2.188-2.833-4.181-2.94-5.467-.124-1.479.367-2.554.869-3.064 1.478-1.51 1.452-3.933-.058-5.411s-3.933-1.451-5.411.057c-2.214 2.261-3.317 5.562-3.027 9.054.216 2.581 1.294 6.466 5.217 10.303 2.161 2.113 5.584 4.502 10.022 4.501 3.846 0 8.456-1.793 13.66-7.113l7.726-7.896c6.124-6.265 6.267-16.097.315-21.921zm-5.784 16.565-.004.003-.011.011c-1.646 1.677-3.869 2.64-6.103 2.64-1.907 0-3.671-.699-4.97-1.97-2.938-2.873-2.743-7.853.432-11.1 1.646-1.683 3.876-2.647 6.115-2.647 1.907 0 3.673.7 4.974 1.97 2.932 2.87 2.738 7.846-.433 11.093z"></path><path d="m253.006 243.777-5.847-5.72c-1.51-1.478-3.933-1.453-5.41.06l-25.415 25.977c-1.478 1.51-1.45 3.933.06 5.411l5.847 5.722c2.64 2.578 6.105 3.941 10.029 3.941 5.804 0 12.041-2.975 17.117-8.16 4.031-4.122 6.745-8.894 7.638-13.437 1.05-5.335-.379-10.233-4.019-13.794zm-3.489 12.318c-.608 3.098-2.599 6.492-5.601 9.56-3.59 3.67-7.943 5.86-11.646 5.86-1.908 0-3.482-.592-4.676-1.76l-3.113-3.044 20.063-20.507 3.111 3.044c1.785 1.745 2.41 4.05 1.862 6.847z"></path><path d="m143.016 187.009c-3.525-3.45-1.883-10.658 3.741-16.408 3.003-3.069 6.353-5.131 9.437-5.808 2.786-.613 5.099-.035 6.884 1.71l5.847 5.719c1.51 1.477 3.934 1.451 5.411-.06s1.452-3.934-.061-5.411l-5.844-5.718c-3.639-3.561-8.567-4.882-13.878-3.716-4.522.993-9.234 3.81-13.267 7.932-8.768 8.965-10.324 20.671-3.621 27.23l5.847 5.72c.743.728 1.71 1.091 2.675 1.091.993 0 1.986-.384 2.735-1.15 1.479-1.511 1.452-3.934-.06-5.411z"></path><path d="m264.347 289.646c.993 0 1.985-.384 2.735-1.15 1.478-1.511 1.452-3.934-.06-5.411l-5.987-5.856c-1.513-1.478-3.936-1.452-5.411.061-1.478 1.511-1.45 3.933.06 5.41l5.987 5.856c.745.727 1.711 1.09 2.676 1.09z"></path><path d="m125.039 73.434c-1.017.018-1.984.437-2.688 1.168l-24.526 25.404c-1.467 1.521-1.424 3.942.094 5.409 1.519 1.468 3.942 1.428 5.411-.095l21.865-22.646 54.462 52.728c.742.72 1.701 1.077 2.66 1.077.999 0 1.999-.39 2.75-1.164 1.47-1.519 1.431-3.941-.09-5.411l-57.213-55.394c-.729-.706-1.694-1.122-2.725-1.076z"></path><path d="m85.648 112.614-14.319 14.829c-1.467 1.521-1.424 3.942.094 5.411.743.717 1.702 1.074 2.659 1.074 1.001 0 2.003-.392 2.752-1.168l14.319-14.829c1.47-1.521 1.427-3.942-.094-5.411-1.52-1.467-3.941-1.426-5.411.094z"></path></g></svg>