<!-- icon666.com - MILLIONS vector ICONS FREE --><svg xmlns="http://www.w3.org/2000/svg" id="Layer_1" data-name="Layer 1" viewBox="0 0 55 55"><rect x="5.41" y="6.82" width="44.17" height="44.67" rx="3.11" fill="#ededed"></rect><path d="M49.59,48.16v.22a3.12,3.12,0,0,1-3.12,3.12H8.53a3.12,3.12,0,0,1-3.12-3.12V9.94a3.12,3.12,0,0,1,3-3.11V45.05a3.12,3.12,0,0,0,3.12,3.12H49.59Z" fill="#dbd8dd"></path><rect x="11.84" y="11.73" width="31.32" height="17.83" rx="1.47" fill="#b6d2dd"></rect><path d="M13.86,11.73h-.55a1.47,1.47,0,0,0-1.47,1.47V28.08a1.47,1.47,0,0,0,1.47,1.47h.55Z" fill="#a7c0c4"></path><path d="M15.69,3.5H12.53A1.45,1.45,0,0,0,11.08,5V6.82h6.07V5A1.46,1.46,0,0,0,15.69,3.5Z" fill="#ededed"></path><path d="M17.15,7.57H11.08a.74.74,0,0,1-.75-.75V5a2.2,2.2,0,0,1,2.2-2.2h3.16A2.21,2.21,0,0,1,17.9,5V6.82A.75.75,0,0,1,17.15,7.57Zm-5.32-1.5H16.4V5a.7.7,0,0,0-.71-.7H12.53a.7.7,0,0,0-.7.7Z" fill="#556065"></path><path d="M42.47,3.5H39.31A1.46,1.46,0,0,0,37.85,5V6.82h6.07V5A1.45,1.45,0,0,0,42.47,3.5Z" fill="#ededed"></path><path d="M43.92,7.57H37.85a.75.75,0,0,1-.75-.75V5a2.21,2.21,0,0,1,2.21-2.2h3.16A2.2,2.2,0,0,1,44.67,5V6.82A.74.74,0,0,1,43.92,7.57ZM38.6,6.07h4.57V5a.7.7,0,0,0-.7-.7H39.31a.7.7,0,0,0-.71.7Z" fill="#556065"></path><path d="M24.68,25.92a.76.76,0,0,1-.71-.5l-2.66-7.31L19.79,21a.77.77,0,0,1-.66.4H11.84a.75.75,0,0,1,0-1.5h6.84l2.09-4a.74.74,0,0,1,.71-.39.75.75,0,0,1,.66.49l2.46,6.76,2.11-7.18a.75.75,0,0,1,.66-.53.76.76,0,0,1,.74.42l1.57,3.3.8-1.93a.74.74,0,0,1,.67-.46.7.7,0,0,1,.69.42l3,6,2.09-3.7a.73.73,0,0,1,.65-.38h5.57a.75.75,0,0,1,0,1.5H38l-2.57,4.55a.71.71,0,0,1-.67.38.77.77,0,0,1-.66-.42L31.23,19l-.81,1.95a.76.76,0,0,1-.68.47.81.81,0,0,1-.69-.43l-1.45-3-2.2,7.48a.77.77,0,0,1-.7.54Z" fill="#556065"></path><path d="M20.31,42.58a1.91,1.91,0,1,1-1.91-1.9A1.91,1.91,0,0,1,20.31,42.58Z" fill="#7b8e98"></path><path d="M18.4,45.25a2.66,2.66,0,1,1,2.66-2.67A2.67,2.67,0,0,1,18.4,45.25Zm0-3.82a1.14,1.14,0,0,0-1.16,1.15,1.16,1.16,0,1,0,2.32,0A1.15,1.15,0,0,0,18.4,41.43Z" fill="#556065"></path><path d="M38.51,42.58a1.91,1.91,0,1,1-3.82,0,1.91,1.91,0,0,1,3.82,0Z" fill="#7b8e98"></path><path d="M36.59,45.25a2.66,2.66,0,1,1,2.67-2.67A2.67,2.67,0,0,1,36.59,45.25Zm0-3.82a1.14,1.14,0,0,0-1.15,1.15,1.16,1.16,0,0,0,1.15,1.17,1.18,1.18,0,0,0,1.17-1.17A1.16,1.16,0,0,0,36.59,41.43Z" fill="#556065"></path><path d="M29.42,42.58a1.92,1.92,0,1,1-1.92-1.9A1.92,1.92,0,0,1,29.42,42.58Z" fill="#7b8e98"></path><path d="M27.5,45.25a2.66,2.66,0,1,1,2.67-2.67A2.68,2.68,0,0,1,27.5,45.25Zm0-3.82a1.16,1.16,0,0,0-1.17,1.15,1.17,1.17,0,0,0,2.34,0A1.16,1.16,0,0,0,27.5,41.43Z" fill="#556065"></path><path d="M46.47,52.25H8.53a3.88,3.88,0,0,1-3.87-3.87V9.94A3.88,3.88,0,0,1,8.53,6.07H46.47a3.88,3.88,0,0,1,3.87,3.87V48.38A3.88,3.88,0,0,1,46.47,52.25ZM8.53,7.57A2.38,2.38,0,0,0,6.16,9.94V48.38a2.37,2.37,0,0,0,2.37,2.37H46.47a2.37,2.37,0,0,0,2.37-2.37V9.94a2.38,2.38,0,0,0-2.37-2.37Z" fill="#556065"></path><path d="M41.69,30.31H13.31a2.23,2.23,0,0,1-2.22-2.22V13.2A2.23,2.23,0,0,1,13.31,11H41.69a2.23,2.23,0,0,1,2.22,2.22V28.09A2.23,2.23,0,0,1,41.69,30.31ZM13.31,12.48a.72.72,0,0,0-.72.72V28.09a.72.72,0,0,0,.72.72H41.69a.72.72,0,0,0,.72-.72V13.2a.72.72,0,0,0-.72-.72Z" fill="#556065"></path></svg>