<!-- icon666.com - MILLIONS vector ICONS FREE --><svg id="Capa_1" enable-background="new 0 0 512 512" viewBox="0 0 512 512" xmlns="http://www.w3.org/2000/svg"><g><g><path d="m493.393 252.989h-358.035v-241.587h358.101z" fill="#b6edba"></path><path d="m10.854 499.415h-.763v-381.448h.763c46.199 0 83.651 37.452 83.651 83.651v214.146c0 46.199-37.451 83.651-83.651 83.651z" fill="#dfedff"></path><path d="m242.768 451.482c7.638-9.346 12.213-21.298 12.213-34.32 0-30.005-24.309-54.315-54.315-54.315-29.992 0-54.302 24.309-54.302 54.315 0 13.021 4.575 24.974 12.213 34.32z" fill="#ffdcd4"></path><path d="m501.868 451.482v-76.02h-170.901c-41.985 0-76.02 34.035-76.02 76.02z" fill="#9ec7ff"></path><path d="m130.68 451.986h371.229v48.672h-371.229z" fill="#ffdb8a"></path></g><g><circle cx="493.326" cy="11.341" r="10.091"></circle><path d="m282.944 188.23c4.978 8.007 12.155 18.009 23.555 24.337 18.066 10.028 38.708 9.194 52.844 6.73 17.605-3.07 35.043-10.462 47.845-20.282 22.863-17.538 36.122-45.281 34.603-72.402-.601-10.733-3.358-20.18-8.196-28.079-8.338-13.614-21.329-20.517-38.616-20.517-7.831 0-15.894 1.609-20.712 2.571-.077.016-.156.031-.235.047-4.091-3.344-10.641-11.536-5.343-27.427 2.143-6.43-2.808-13.283-9.573-13.283h-43.339c-3.51 0-6.768 1.824-8.603 4.816-1.2 1.959-11.222 20.089 6.36 53.235 2.033 3.832-.213 7.938-1.733 10.044-4.977 6.897-17.554 13.808-36.617 10.595-14.087-2.374-27.711 2.137-38.355 12.71-17.612 17.493-25.162 49.34-19.704 83.113.79 4.888 5.011 8.481 9.962 8.481h39.888c6.119 0 10.942-5.669 9.961-11.71-2.157-13.273-1.028-27.13 1.422-30.628.959 1.263 3.988 6.687 4.586 7.649zm-19.2-21.588c-7.863 8.767-8.61 24.806-7.975 36.094h-19.775c-2.078-23.838 3.535-45.648 15.057-57.092 6.072-6.031 13.065-8.429 20.778-7.128 28.166 4.749 47.572-6.539 56.338-18.687 7.148-9.905 8.342-21.61 3.196-31.312-6.829-12.874-8.307-22.56-7.924-28.412h23.264c-1.064 12.188 2.656 21.203 6.564 27.116 5.529 8.366 12.597 12.307 13.717 12.896v.001c3.476 1.806 6.396 1.225 11.233.259 4.35-.868 10.925-2.18 16.762-2.18 10.197 0 16.798 3.354 21.404 10.875 3.075 5.022 4.844 11.303 5.256 18.668 1.151 20.552-9.094 41.727-26.736 55.26-20.292 15.566-56.722 24.068-78.61 11.92-7.298-4.051-12.29-11.043-16.21-17.348-.347-.558-7-17.612-20.027-17.612-6.357 0-12.148 2.039-16.312 6.682z"></path><path d="m135.358 263.08h358.035c5.573 0 10.091-4.518 10.091-10.091v-196.066c0-5.573-4.518-10.091-10.091-10.091s-10.091 4.518-10.091 10.091v185.975h-337.853v-221.405h302.465c5.573 0 10.091-4.518 10.091-10.091s-4.518-10.091-10.091-10.091h-312.556c-5.573 0-10.091 4.518-10.091 10.091v241.587c0 5.573 4.517 10.091 10.091 10.091z"></path><path d="m185.541 95.103v-41.71c0-5.573-4.518-10.091-10.091-10.091s-10.091 4.518-10.091 10.091v41.71c0 5.573 4.518 10.091 10.091 10.091s10.091-4.517 10.091-10.091z"></path><circle cx="175.621" cy="139.164" r="10"></circle><path d="m10.091 107.876c-5.573 0-10.091 4.518-10.091 10.091v381.448c0 5.573 4.518 10.091 10.091 10.091 52.111 0 94.506-42.395 94.506-94.506v-212.62c0-52.109-42.395-94.504-94.506-94.504zm74.323 307.125c0 37.56-28.006 68.702-64.232 73.641v-359.901c36.226 4.939 64.232 36.081 64.232 73.64z"></path><path d="m511.96 375.461c0-5.573-4.518-10.091-10.091-10.091h-170.902c-27.875 0-52.686 13.324-68.435 33.926-7.766-26.847-32.551-46.54-61.866-46.54-35.506 0-64.393 28.892-64.393 64.406 0 8.535 1.717 16.946 4.951 24.733h-10.544c-5.573 0-10.091 4.518-10.091 10.091v48.672c0 5.573 4.518 10.091 10.091 10.091h371.229c5.573 0 10.091-4.518 10.091-10.091zm-180.993 10.091h160.81v56.343h-226.034c4.657-31.825 32.127-56.343 65.224-56.343zm-174.511 31.61c0-24.385 19.833-44.223 44.211-44.223 24.385 0 44.223 19.839 44.223 44.223 0 8.835-2.664 17.477-7.56 24.733h-73.313c-4.897-7.256-7.561-15.898-7.561-24.733zm335.362 73.405h-351.047v-28.49h351.046v28.49z"></path></g></g></svg>