<!-- icon666.com - MILLIONS vector ICONS FREE --><svg id="Layer_1" enable-background="new 0 0 73 73" viewBox="0 0 73 73" xmlns="http://www.w3.org/2000/svg"><g id="_x35_"><path d="m63.4397697 12.1685295c-2.5947266 2.3457031-5.4765625 4.515625-8.0449219 6.3974609l-2.9716797-3.5634766c-.2675781-.3173828-.7392578-.359375-1.0566406-.09375s-.359375.7392578-.09375 1.0566406l3.421875 4.1025391c.2556343.3064213.7039795.3546104 1.0175552.1240234 2.7353745-1.9960938 5.892601-4.3417969 8.7334175-6.9101563.3076172-.2783203.3310547-.7519531.0537109-1.0595703-.2792967-.3085936-.7519492-.330078-1.0595664-.0537108z"></path><path d="m59.6223869 4.7163811c-8.3757591-1.6938047-14.5855141 4.9166775-14.8103638 12.1342773-.0438232 1.4346924.3458862 2.9516602.9432373 4.3375244-.1089325.0734386-4.596096 2.1986256-7.6299438 6.5174561-6.1188049-9.8142776-18.604599-11.8853254-26.6417236-5.2109375-3.8483272 2.5375977-6.5288692 6.4841309-7.2055659 11.7177734-.9164429 7.0874023 2.1741333 14.2702637 6.919189 19.7084961 4.7451172 5.4382324 11.0145884 9.3649902 17.3856812 12.8432579 2.2098999 1.206543 4.9885864 2.3413086 7.1982422 1.4924316l.1185913.1442871c3.65765-2.5564194 8.2954369-5.1815567 13.3007813-9.1386681 5.1474648-4.051445 10.9884415-7.591011 14.7529297-13.0908203 4.3535347-6.3788948 5.5611992-15.0386677.8959312-21.0197754.9351196-.8865967 1.7253418-1.9196777 2.2842407-3.0378418.298584-.480835.5643311-.987793.7924805-1.5195313 2.9406813-6.7468022-1.1980211-14.4601281-8.3037073-15.8779295zm3.0927735 40.6083984c-3.5947533 5.2522125-9.3398209 8.7420845-14.4433594 12.7597656-4.8622818 3.8432312-9.2699509 6.3419609-13.0228271 8.9448204-2.5263443-1.2072983-12.9707584-7.3683472-17.675415-11.3500938-3.6276255-3.0849609-6.3899546-6.5183105-8.1831675-10.095459.2952023-.0967865-.2676716.2075462 6.4292603-4.3850098 5.1610098 7.3408966 4.7620821 7.2861328 5.4199228 7.2861328.1513672 0 .2998047-.0458984.4257813-.1328125l7.9550781-5.4882813c.9255295 1.6904793 1.6687698 3.0177078 2.3251953 4.2363281.1181641.2207031.3398438.3671875.5888672.3916016 3.7558594.3417969 7.8828125-3.3408203 9.3388672-4.7792969 5.9131851 3.1358681 5.7332344 3.1601563 6.0830078 3.1601563h11.1660156c.4140625 0 .75-.3359375.75-.75s-.3359375-.75-.75-.75h-10.9775391l-6.0576401-3.2480469c-.2988052-.1601563-.6777115-.0849609-.9111099.1572266-.4765625.5-4.6230469 4.734375-8.1103516 4.734375h-.0009766c-.7579155-1.3953934-1.7789421-3.2180214-2.5224609-4.5996094-.21134-.3939514-.7203941-.514946-1.0859375-.2617188l-8.0253906 5.5371094c-5.0829391-7.2298508-4.7349262-7.174572-5.2841797-7.2734375-.5526104-.1049957-.26616.0108299-7.3748789 4.8210449-3.1922789-7.4592171-1.7409787-14.8331413 2.2303467-19.2390137 6.750783-7.4815121 20.459404-6.5706615 26.4287109 4.4951172.292263.5380306 1.0375786.4811344 1.3056641.0253906 1.6425781-2.7763672 4.5087891-5.3857422 7.6699219-6.9824219.0047607-.0024414.0093994-.0043945.0141602-.0067139.9486694 1.6824608 1.9860954 2.9107189 3.645874 3.9039307 4.0609703 2.428894 9.4117584 2.8000889 13.6334839-.3208008 4.2203645 5.440058 2.9868821 13.3904688-.9849234 19.209717zm3.8339805-25.3261719c-1.8662109 4.3525391-6.598629 6.8251953-11.2373009 5.8798828-7.6170883-1.5440044-10.4433136-10.9077339-5.9423828-16.3818359 1.8268166-2.313498 4.5691643-3.5507813 7.6044922-3.5507813 7.819439.0000001 12.3875389 7.6099053 9.5751915 14.0527344z"></path></g></svg>