<!-- icon666.com - MILLIONS vector ICONS FREE --><svg xmlns="http://www.w3.org/2000/svg" xmlns:xlink="http://www.w3.org/1999/xlink" version="1.1" id="Layer_1" x="0px" y="0px" viewBox="0 0 512 512" style="enable-background:new 0 0 512 512;" xml:space="preserve"><g><path style="fill:#E0F4FF;" d="M421,354.3V497H91V354.3c38.101,49.2,98.101,80.7,165,80.7S382.899,403.5,421,354.3z"></path><path style="fill:#BBDCFF;" d="M421,354.3V497H256v-62C322.899,435,382.899,403.5,421,354.3z"></path><polygon style="fill:#BBDCFF;" points="31,482 256,482 181,512 31,512 "></polygon><polygon style="fill:#9ED0FF;" points="481,482 481,512 331,512 256,482 "></polygon><polygon style="fill:#9ABADB;" points="481,482 481,512 331,512 256,482 "></polygon><path style="fill:#BBDCFF;" d="M481,225c0,124.2-100.8,225-225,225S31,349.2,31,225l43.801-30L121,225c0,74.399,60.601,135,135,135 s135-60.601,135-135l47.401-30L481,225z"></path><path style="fill:#9ABADB;" d="M481,225c0,124.2-100.8,225-225,225v-90c74.399,0,135-60.601,135-135l47.401-30L481,225z"></path><path style="fill:#E0F4FF;" d="M481,225h-90c0-74.399-60.601-135-135-135s-135,60.601-135,135H31C31,100.8,131.8,0,256,0 S481,100.8,481,225z"></path><path style="fill:#BBDCFF;" d="M481,225h-90c0-74.399-60.601-135-135-135V0C380.2,0,481,100.8,481,225z"></path><rect x="241" y="60" width="30" height="30"></rect><path style="fill:#9ED0FF;" d="M181,0v150h150V0H181z"></path><rect x="256" style="fill:#3AAAFF;" width="75" height="150"></rect><rect x="181" y="255" style="fill:#E0F4FF;" width="150" height="257"></rect><rect x="256" y="255" style="fill:#BBDCFF;" width="75" height="257"></rect><rect x="151" y="240" style="fill:#9ED0FF;" width="210" height="30"></rect><rect x="256" y="240" style="fill:#3AAAFF;" width="105" height="30"></rect></g></svg>