<!-- icon666.com - MILLIONS vector ICONS FREE --><svg version="1.1" id="Capa_1" xmlns="http://www.w3.org/2000/svg" xmlns:xlink="http://www.w3.org/1999/xlink" x="0px" y="0px" viewBox="0 0 480.001 480.001" style="enable-background:new 0 0 480.001 480.001;" xml:space="preserve"><g><g><path d="M375.426,271.966c-4.418-30.611-32.815-51.844-63.426-47.426c-30.611,4.418-51.844,32.815-47.426,63.426 c3.547,24.574,22.852,43.879,47.426,47.426v53.6c-0.003,41.426-33.587,75.006-75.013,75.003 c-19.967-0.001-39.109-7.964-53.187-22.123l-1.984-1.992C167.8,425.857,159.949,406.827,160,387v-83.44 c67.457-4.057,120.067-59.981,120-127.56V64c-0.043-23.397-16.934-43.361-40-47.28V8c0-4.418-3.582-8-8-8h-24 c-13.255,0-24,10.745-24,24s10.745,24,24,24h24c4.418,0,8-3.582,8-8v-6.864c14.086,3.637,23.945,16.317,24,30.864v112 c0,61.856-50.144,112-112,112S40,237.856,40,176V64c0.055-14.547,9.915-27.227,24-30.864V40c0,4.418,3.582,8,8,8h24 c13.255,0,24-10.745,24-24S109.255,0,96,0H72c-4.418,0-8,3.582-8,8v8.72C40.934,20.639,24.044,40.603,24,64v112 c-0.067,67.579,52.543,123.503,120,127.56V387c-0.068,24.07,9.459,47.174,26.472,64.2l1.984,1.992 c17.018,17.232,40.253,26.893,64.472,26.808h1.952c49.525-1.023,89.135-41.472,89.12-91.008v-53.6 C358.611,330.974,379.844,302.577,375.426,271.966z M224,32h-16c-2.12-0.007-4.152-0.849-5.656-2.344 c-3.123-3.124-3.123-8.188,0-11.312c1.504-1.495,3.536-2.337,5.656-2.344h16V32z M80,16h16c2.12,0.007,4.152,0.849,5.656,2.344 c3.123,3.124,3.123,8.188,0,11.312C100.152,31.151,98.12,31.993,96,32H80V16z M320,320c-22.08-0.026-39.974-17.92-40-40 c0-22.091,17.909-40,40-40c22.091,0,40,17.909,40,40C360,302.091,342.092,320,320,320z"></path></g></g><g><g><path d="M320,144v16c66.243,0.075,119.925,53.757,120,120h16C455.917,204.924,395.076,144.084,320,144z"></path></g></g><g><g><path d="M205.976,317.504l-15.2,4.992c13.562,41.001,45.727,73.166,86.728,86.728l4.992-15.2 C246.322,382.057,217.943,353.679,205.976,317.504z"></path></g></g><g><g><path d="M320,256c-13.255,0-24,10.745-24,24s10.745,24,24,24s24-10.745,24-24S333.255,256,320,256z M320,288c-4.418,0-8-3.582-8-8 s3.582-8,8-8s8,3.582,8,8S324.419,288,320,288z"></path></g></g><g><g><path d="M239.328,315.2l-14.664,6.4c10.236,23.436,28.749,42.279,52,52.928L283.336,360 C263.66,350.982,247.994,335.034,239.328,315.2z"></path></g></g><g><g><path d="M320,176v16c48.577,0.057,87.943,39.423,88,88h16C423.934,222.59,377.411,176.066,320,176z"></path></g></g></svg>