<!-- icon666.com - MILLIONS vector ICONS FREE --><svg fill="rgba(10,7,57,0.8)" version="1.1" id="Layer_1" xmlns="http://www.w3.org/2000/svg" xmlns:xlink="http://www.w3.org/1999/xlink" x="0px" y="0px" viewBox="0 0 512 512" style="enable-background:new 0 0 512 512;" xml:space="preserve"><g><g><path d="M301.341,182.875c-17.747,0-33.273,7.458-45.114,21.618c-11.84-14.161-27.366-21.618-45.114-21.618 c-33.708,0-60.114,26.962-60.114,61.383c0,36.651,30.389,60.944,72.449,94.567c7.429,5.939,15.111,12.08,23.261,18.77 c2.766,2.271,6.142,3.406,9.517,3.406s6.751-1.135,9.517-3.406c8.15-6.69,15.832-12.831,23.261-18.77 c42.06-33.623,72.449-57.916,72.449-94.567C361.455,209.837,335.05,182.875,301.341,182.875z M270.273,315.392 c-4.566,3.65-9.226,7.375-14.046,11.269c-4.82-3.893-9.48-7.618-14.046-11.269C205.339,285.94,181,266.483,181,244.258 c0-17.891,12.946-31.383,30.114-31.383c22.133,0,30.213,24.634,30.728,26.281c1.82,6.466,7.652,10.981,14.373,10.981 c6.734,0,12.577-4.443,14.384-10.931c0.33-1.075,8.333-26.332,30.744-26.332c17.167,0,30.114,13.492,30.114,31.383 C331.455,266.483,307.116,285.94,270.273,315.392z"></path></g></g><g><g><path d="M466,150H362V46c0-25.364-20.636-46-46-46H196c-25.364,0-46,20.636-46,46v104H46c-25.364,0-46,20.636-46,46v120 c0,25.364,20.636,46,46,46h104v104c0,25.364,20.636,46,46,46h120c25.364,0,46-20.636,46-46V362h104c25.364,0,46-20.636,46-46V196 C512,170.636,491.364,150,466,150z M482,316c0,8.822-7.178,16-16,16H347c-8.284,0-15,6.716-15,15v119c0,8.822-7.178,16-16,16H196 c-8.822,0-16-7.178-16-16V347c0-8.284-6.716-15-15-15H46c-8.822,0-16-7.178-16-16V196c0-8.822,7.178-16,16-16h119 c8.284,0,15-6.716,15-15V46c0-8.822,7.178-16,16-16h120c8.822,0,16,7.178,16,16v119c0,8.284,6.716,15,15,15h119 c8.822,0,16,7.178,16,16V316z"></path></g></g></svg>