<!-- icon666.com - MILLIONS vector ICONS FREE --><svg id="Capa_1" enable-background="new 0 0 512 512" viewBox="0 0 512 512" xmlns="http://www.w3.org/2000/svg"><g><path d="m278.251 294.664c-4.449-6.859-10.431-12.643-17.489-16.78-7.682-4.536-16.668-7.144-26.249-7.144h-134.988c-14.315 0-27.298 5.84-36.737 15.278-7.738 7.739-13.067 17.888-14.74 29.198h219.999c3.118-6.803 6.548-13.662 10.204-20.552zm-41.556-78.916v-34.612c0-1.871-.765-3.571-1.983-4.79-1.248-1.247-2.948-2.013-4.819-2.013s-3.571.766-4.819 2.013c-1.247 1.219-2.012 2.919-2.012 4.79v34.612zm15.025-34.612v34.612h13.436c.511 0 .964-.227 1.305-.566.34-.341.538-.794.538-1.276v-37.333c0-12.416-5.102-23.726-13.294-31.918s-19.475-13.295-31.919-13.295h-109.476c-12.076 0-23.471 4.763-32.003 13.295-8.192 8.192-13.295 19.502-13.295 31.918v37.333c0 .482.198.936.538 1.276.341.34.794.566 1.305.566h13.435v-34.612c0-6.01 2.467-11.451 6.406-15.42 3.969-3.94 9.412-6.406 15.421-6.406 6.01 0 11.48 2.466 15.421 6.406 3.969 3.969 6.406 9.41 6.406 15.42v34.612h19.248v-34.612c0-6.01 2.438-11.451 6.406-15.42 3.94-3.94 9.411-6.406 15.421-6.406 6.009 0 11.451 2.466 15.42 6.406 3.94 3.969 6.378 9.41 6.378 15.42v34.612h19.247v-34.612c0-6.01 2.438-11.451 6.407-15.42 3.94-3.94 9.411-6.406 15.421-6.406 6.009 0 11.452 2.466 15.421 6.406 3.94 3.969 6.407 9.41 6.407 15.42zm-77.898 34.612v-34.612c0-1.871-.766-3.571-2.013-4.79-1.219-1.247-2.948-2.013-4.79-2.013-1.871 0-3.601.766-4.819 2.013-1.247 1.219-2.013 2.919-2.013 4.79v34.612zm-62.874 0v-34.612c0-1.871-.765-3.571-2.012-4.79-1.248-1.247-2.948-2.013-4.819-2.013s-3.571.766-4.79 2.013c-1.248 1.219-2.013 2.919-2.013 4.79v34.612zm242.565 114.605h20.211c5.357 0 10.234 2.183 13.749 5.726 3.543 3.516 5.726 8.391 5.726 13.748v15.846h15.817c5.386 0 10.233 2.184 13.776 5.698 3.516 3.543 5.697 8.419 5.697 13.777v20.211c0 5.357-2.182 10.233-5.697 13.748-3.543 3.543-8.391 5.727-13.776 5.727h-15.817v15.846c0 5.357-2.183 10.232-5.726 13.748-3.515 3.515-8.392 5.726-13.749 5.726h-20.211c-5.386 0-10.233-2.211-13.776-5.726-3.516-3.516-5.698-8.391-5.698-13.748v-15.846h-15.846c-5.357 0-10.233-2.184-13.776-5.727-3.515-3.515-5.698-8.391-5.698-13.748v-20.211c0-5.358 2.184-10.234 5.698-13.777 3.543-3.515 8.419-5.698 13.776-5.698h15.846v-15.846c0-5.357 2.183-10.232 5.698-13.748 3.542-3.543 8.39-5.726 13.776-5.726zm20.211 14.996h-20.211c-1.247 0-2.353.511-3.175 1.332-.794.822-1.305 1.928-1.305 3.146v23.33c0 4.139-3.373 7.512-7.512 7.512h-23.329c-1.219 0-2.353.51-3.147 1.304-.821.822-1.332 1.957-1.332 3.176v20.211c0 1.219.511 2.324 1.332 3.146.794.822 1.928 1.332 3.147 1.332h23.329c4.139 0 7.512 3.346 7.512 7.483v23.358c0 1.219.511 2.324 1.305 3.147.822.821 1.928 1.332 3.175 1.332h20.211c1.219 0 2.324-.511 3.146-1.332.821-.822 1.332-1.928 1.332-3.147v-23.358c0-4.138 3.345-7.483 7.484-7.483h23.329c1.247 0 2.353-.51 3.175-1.332.794-.822 1.304-1.928 1.304-3.146v-20.211c0-1.219-.51-2.354-1.304-3.176-.822-.794-1.956-1.304-3.175-1.304h-23.329c-4.14 0-7.484-3.373-7.484-7.512v-23.33c0-1.219-.511-2.324-1.332-3.146-.822-.822-1.928-1.332-3.146-1.332zm-112.197-15.137h-214.017v36.681c0 4.138-3.345 7.483-7.484 7.483s-7.512-3.346-7.512-7.483v-44.164c0-18.425 7.54-35.179 19.673-47.311 10.46-10.487 24.378-17.518 39.827-19.275v-25.398h-23.16c-4.648 0-8.844-1.899-11.906-4.96-3.032-3.033-4.932-7.258-4.932-11.878v-37.333c0-16.555 6.774-31.635 17.688-42.52 9.298-9.327 21.656-15.62 35.376-17.264 1.077-7.512 4.621-14.287 9.751-19.418 4.563-4.563 10.375-7.852 16.895-9.297v-13.92c0-4.139 3.345-7.483 7.483-7.483 4.139 0 7.512 3.345 7.512 7.483v20.58c0 4.138-3.373 7.512-7.512 7.512-5.357 0-10.232 2.183-13.749 5.726-2.324 2.324-4.053 5.188-4.988 8.391h93.062c-.936-3.203-2.665-6.066-4.961-8.391-3.544-3.543-8.419-5.726-13.776-5.726-4.139 0-7.512-3.374-7.512-7.512v-59.443c0-5.557-2.268-10.631-5.953-14.315-3.686-3.685-8.759-5.982-14.314-5.982-5.585 0-10.658 2.297-14.344 5.982-3.686 3.684-5.953 8.759-5.953 14.315v4.903c0 4.14-3.373 7.484-7.512 7.484s-7.483-3.345-7.483-7.484v-4.903c0-9.724 3.969-18.539 10.347-24.917 6.407-6.406 15.223-10.375 24.947-10.375 9.694 0 18.538 3.969 24.916 10.375 6.406 6.378 10.375 15.193 10.375 24.917v52.782c6.491 1.445 12.304 4.733 16.867 9.297 5.131 5.131 8.674 11.906 9.751 19.418 13.72 1.644 26.078 7.937 35.377 17.264 10.913 10.885 17.688 25.937 17.688 42.52v37.333c0 4.62-1.899 8.845-4.932 11.878-3.062 3.061-7.258 4.96-11.906 4.96h-23.159v25.398c9.496 1.077 18.426 4.167 26.334 8.845 6.804 3.996 12.841 9.184 17.83 15.25l.709-1.247c21.969-38.466 49.238-76.367 70.754-104.883 3.061-4.054 9.127-3.94 12.047.113 8.702 11.537 18.511 24.803 28.801 39.487 10.12 14.429 20.409 29.82 30.104 45.524 2.182 3.515 1.076 8.107-2.439 10.29-3.486 2.154-8.106 1.077-10.261-2.438-9.582-15.506-19.701-30.643-29.65-44.816-7.627-10.857-15.309-21.374-22.622-31.182-20.183 27.1-44.191 61.115-63.723 95.302-21.176 37.05-37.135 74.269-37.135 102.701 0 27.864 11.282 53.093 29.537 71.348 18.256 18.228 43.484 29.538 71.32 29.538 27.866 0 53.065-11.311 71.321-29.538 18.255-18.255 29.537-43.483 29.537-71.348 0-12.785-3.261-27.412-8.76-43.003-5.669-16.044-13.663-32.995-22.932-50.004-1.984-3.629-.652-8.164 2.976-10.148 3.629-1.955 8.164-.623 10.148 3.005 9.666 17.746 18 35.434 23.926 52.158 6.065 17.178 9.666 33.449 9.666 47.992 0 32.003-12.983 60.973-33.96 81.95-20.948 20.948-49.918 33.931-81.923 33.931-27.213 0-52.214-9.383-71.973-25.086-5.216 8.504-12.274 15.76-20.579 21.203-10.515 6.889-23.101 10.914-36.537 10.914h-134.988c-18.454 0-35.206-7.512-47.339-19.673-12.133-12.132-19.673-28.886-19.673-47.311v-44.163c0-4.139 3.373-7.483 7.512-7.483 4.14 0 7.484 3.345 7.484 7.483v36.651h210.814c-6.804-14.711-10.573-31.124-10.573-48.415.001-17.548 5.245-37.702 13.777-58.877zm18.765 139.409c-5.073-5.244-9.666-10.971-13.662-17.094h-218.582c1.673 11.282 7.002 21.46 14.74 29.198 9.439 9.439 22.422 15.279 36.737 15.279h134.987c10.432 0 20.183-3.118 28.347-8.477 7.257-4.76 13.294-11.28 17.433-18.906zm-103.55-108.257c-4.139 0-7.483-3.345-7.483-7.482 0-4.139 3.345-7.513 7.483-7.513h45.497c4.139 0 7.512 3.374 7.512 7.513 0 4.138-3.373 7.482-7.512 7.482zm0 60.011c-4.139 0-7.483-3.373-7.483-7.512s3.345-7.483 7.483-7.483h45.497c4.139 0 7.512 3.345 7.512 7.483s-3.373 7.512-7.512 7.512zm0-29.99c-4.139 0-7.483-3.373-7.483-7.512 0-4.14 3.345-7.513 7.483-7.513h45.497c4.139 0 7.512 3.373 7.512 7.513 0 4.139-3.373 7.512-7.512 7.512zm-70.584-48.417c11.282 0 21.516 4.592 28.914 11.99s11.991 17.632 11.991 28.915c0 11.281-4.593 21.515-11.991 28.913s-17.632 11.991-28.914 11.991-21.515-4.593-28.913-11.991-11.99-17.632-11.99-28.913c0-11.283 4.592-21.517 11.99-28.915 7.399-7.398 17.631-11.99 28.913-11.99zm18.312 22.592c-4.677-4.677-11.168-7.597-18.312-7.597s-13.635 2.92-18.312 7.597c-4.678 4.678-7.568 11.169-7.568 18.313 0 7.143 2.891 13.635 7.568 18.312s11.168 7.568 18.312 7.568 13.635-2.892 18.312-7.568c4.679-4.677 7.599-11.169 7.599-18.312-.001-7.145-2.921-13.636-7.599-18.313zm-17.461-109.815h119.992v-25.002c-39.997 0-79.994 0-119.992 0z"></path></g></svg>