<svg fill="rgba(0, 127, 150, 0.9)" version="1.1" id="Capa_1" xmlns="http://www.w3.org/2000/svg" xmlns:xlink="http://www.w3.org/1999/xlink" x="0px" y="0px" viewBox="0 0 512 512" style="enable-background:new 0 0 512 512;" xml:space="preserve"><g><g><g><path d="M369.243,0H142.757c-33.654,0-61.041,27.379-61.041,61.041v389.917c0,33.662,27.388,61.041,61.041,61.041h226.487 c33.654,0,61.041-27.379,61.041-61.032V61.041C430.285,27.379,402.897,0,369.243,0z M397.519,450.959 c0,15.593-12.691,28.284-28.275,28.284H142.757c-15.584,0-28.275-12.691-28.275-28.275V61.041 c0-15.593,12.682-28.284,28.275-28.284h226.487c15.584,0,28.275,12.691,28.275,28.284V450.959z"></path><path d="M364.62,72.277H147.398c-9.044,0-16.383,7.331-16.383,16.383s7.331,16.383,16.383,16.383H364.62 c9.043,0,16.392-7.331,16.392-16.383S373.672,72.277,364.62,72.277z"></path><path d="M364.62,406.957H147.398c-9.044,0-16.383,7.331-16.383,16.383s7.331,16.383,16.383,16.383H364.62 c9.043,0,16.392-7.331,16.392-16.383S373.672,406.957,364.62,406.957z"></path></g></g></g></svg>