<!-- icon666.com - MILLIONS vector ICONS FREE --><svg id="Layer_1" enable-background="new 0 0 68 68" viewBox="0 0 68 68" xmlns="http://www.w3.org/2000/svg"><g id="_x38_9_2_"><g id="_x38_8"><g><path d="m61.8310356 28.7092896v28.7329292c0 4.1716805-3.3818169 7.5534935-7.5534973 7.5534935h-.0000153c-4.1716805 0-7.5534973-3.381813-7.5534973-7.5534935v-28.7329292z" fill="#efefef" style="fill: rgb(237, 236, 249);"></path></g><g><path d="m64.431633 23.0632973v4.2111778c0 .7924252-.6423836 1.4348145-1.4348106 1.4348145h-17.4385834c-.7924232 0-1.4348145-.6423893-1.4348145-1.4348145v-4.2111778c0-.7924271.6423912-1.4348145 1.4348145-1.4348145h17.4385834c.792427 0 1.4348106.6423874 1.4348106 1.4348145z" fill="#dddee0" style="fill: rgb(228, 216, 216);"></path></g><g><path d="m44.1278152 27.2738152c0 .7965813.6373634 1.4338188 1.4338188 1.4338188h1.1649704v28.7348404c0 .4480019.0397453.886158.1193542 1.3043785h-31.1841334c-1.8818197 0-3.3852816-1.5134277-3.3852816-3.3952484l.0298996-37.0487289v-.0099659l.0099659-5.7151003v-5.1973353c0-.1293197-.0099659-.2688489-.0199327-.3981686 0-.0597978-.0099659-.1096296-.0199327-.1693063-.0099659-.1194749-.0298986-.2389498-.0596762-.3484583-.0199327-.1294408-.0596771-.258882-.0995426-.3783569-.1295624-.4381552-.3286467-.8363233-.5775623-1.1948695-.1293192-.1791511-.2688484-.3484578-.4280672-.5077982-.0298996-.0298991-.0597982-.069643-.0896978-.0995421l-.6371174-.5276091c-.0199327-.0199327-.0398655-.0298991-.0697641-.0498319-.0895758-.0498319-.1791515-.1095085-.2588825-.1593404l-.0298996-.0099661-.2788143-.149374c-.0198118-.0099664-.0497105-.0199328-.079488-.0298992l-.4281893-.1492521c-.0398655-.0199327-.069643-.0298991-.1095085-.0398655l-.149374-.0398655c-.0398655-.0099664-.0995417-.0199328-.149374-.0297775 0 0 0 0-.0099659 0-.0398655-.0099664-.0895758-.0199328-.1394072-.0298992-.069643-.0099663-.1394081-.0199327-.1990843-.0298991l-.1992063-.0198111-.0099659-.0199328h40.8620796c2.5688896 0 4.6398239 2.2003782 4.6398239 4.9085541v13.7202759h-8.2142258c-.7964554 0-1.4338188.6470833-1.4338188 1.4336967z" fill="#efefef" style="fill: rgb(237, 236, 249);"></path></g><g><path d="m12.3153791 7.3780093-.000001 10.9184971h-6.8445405c-1.0504708 0-1.902046-.8515739-1.902046-1.9020443v-9.0164528c0-2.4153008 1.9579885-4.3732891 4.3732891-4.3732891h.0000086c2.4153011.0000002 4.3732898 1.9579883 4.3732898 4.3732891z" fill="#dddee0" style="fill: rgb(228, 216, 216);"></path></g><g><path d="m12.3118477 12.5810595v5.715888h-.0094032z" fill="#fff"></path></g><g><path d="m61.8307457 40.2772408v17.1652336c0 4.171772-3.3851585 7.5571747-7.5570526 7.5571747-2.0809021 0-3.9726868-.8464127-5.3367424-2.2104645-1.3640556-1.3740196-2.2103462-3.265686-2.2103462-5.3467102v-17.1652336z" fill="#00cc6f" style="fill: rgb(0, 180, 204);"></path></g></g><g id="_x38_9_1_" fill="#0d0d0d"><path d="m18.2531738 17.7929688h29.5527344c.5522461 0 1-.4472656 1-1 0-.5517578-.4477539-1-1-1h-29.5527344c-.5522461 0-1 .4482422-1 1 0 .5527343.4477539 1 1 1z" fill="#0d0d0d"></path><path d="m18.2531738 10.7529297h29.5527344c.5522461 0 1-.4482422 1-1 0-.5527344-.4477539-1-1-1h-29.5527344c-.5522461 0-1 .4472656-1 1 0 .5517578.4477539 1 1 1z" fill="#0d0d0d"></path><path d="m5.4709473 19.2963867h5.8356934l-.0300293 36.0551758c0 2.4238281 1.9672852 4.3955078 4.3852539 4.3955078h30.3852539c1.0327529 3.6662712 4.3296928 6.2529297 8.2265624 6.2529297 4.7182617 0 8.5571289-3.8388672 8.5571289-8.5576172 0-9.60532 0-17.6580734 0-27.7333984h.1660156c1.3422852 0 2.4345703-1.0917969 2.4345703-2.4345703v-4.2109375c0-1.3427734-1.0922852-2.4350586-2.4345703-2.4350586h-8.2211914v-12.7202149c.0000001-3.2578125-2.5297851-5.9082031-5.6396484-5.9082031-.1458053.0000174-41.0798855.0048828-41.1938476.0048828-2.9628906 0-5.3735352 2.4101563-5.3735352 5.3730469v9.0166016c0 1.6000976 1.3017578 2.9018554 2.9023438 2.9018554zm48.8066406 44.6992188c-3.6070404 0-6.5507813-2.9446144-6.5507813-6.5532227v-16.165039h13.1040039v16.1650391c0 3.6060599-2.9337081 6.5532226-6.5532226 6.5532226zm6.5532226-24.7182617h-13.1040039v-9.5683594h13.1040039zm2.600586-16.2138672v4.2109375c0 .2397461-.1948242.4345703-.4345703.4345703h-1.1660156c-1.6635056-.0001507 6.0261307.0005417-16.269043-.0014648-.2436523 0-.434082-.1904297-.434082-.4335938v-4.2114258c0-.2392578.1948242-.434082.434082-.434082h1.4057617v1.2006836c0 .5517578.4477539 1 1 1s1-.4482422 1-1v-1.2006836h2.206543v1.2006836c0 .5517578.4477539 1 1 1s1-.4482422 1-1v-1.2006836c.1104431 0 2.3252792 0 2.206543 0v1.2006836c0 .5517578.4477539 1 1 1s1-.4482422 1-1v-1.2006836h2.2070313v1.2006836c0 .5517578.4477539 1 1 1s1-.4482422 1-1v-1.2006836h1.4091797c.239746 0 .4345702.1948242.4345702.4350586zm-14.2954102-19.0634766c2.0068359 0 3.6396484 1.7529297 3.6396484 3.9082031v12.7202149c-.1018944 0-7.3231163 0-7.2172852 0-1.2624512 0-2.2915039.9692383-2.411377 2.2006836h-24.8962401c-.5522461 0-1 .4472656-1 1 0 .5517578.4477539 1 1 1h24.8725586v2.4453125c0 1.3427734 1.0922852 2.4345703 2.4350586 2.4345703h.1655273v.1689453h-27.4731445c-.5522461 0-1 .4482422-1 1 0 .5527344.4477539 1 1 1h27.4731446v5.0395508h-27.4731446c-.5522461 0-1 .4477539-1 1s.4477539 1 1 1h27.4731446v5.0395508h-27.4731446c-.5522461 0-1 .4472656-1 1 0 .5517578.4477539 1 1 1h27.4731446v5.0390625h-27.4731446c-.5522461 0-1 .4482422-1 1 0 .5527344.4477539 1 1 1h27.4731446v4.4462891c0 .0297852.0041504.0585938.0043945.0883789.0009766.0722656.0014648.144043.0039063.2163086h-30.0703126c-1.3374023 0-2.3852539-1.0527344-2.3852539-2.3945313.0001965-.1701393.0400219-47.8472824.0400391-47.972168 0-.1538086-.0112305-.3198242-.0200195-.3979492 0-.7182875-.4463196-2.0965252-1.1831055-2.9824219h37.0224609zm-44.5673828 3.3779297c0-1.8603516 1.5131836-3.3730469 3.3735352-3.3730469 1.6651096 0 3.3730469 1.4947133 3.3730469 3.3730469-.0053835 9.5538158-.0051079 4.6381073-.0109863 9.918457h-5.833252c-.4975586 0-.9023438-.4047852-.9023438-.9018555z" fill="#0d0d0d"></path></g></g></svg>