<!-- icon666.com - MILLIONS vector ICONS FREE --><svg id="Layer_5" viewBox="0 0 64 64" xmlns="http://www.w3.org/2000/svg" data-name="Layer 5"><path d="m55 4h-46a7.0077 7.0077 0 0 0 -7 7v34a7.0077 7.0077 0 0 0 7 7h16v4h-3a2 2 0 0 0 0 4h20a2 2 0 0 0 0-4h-3v-4h16a7.0077 7.0077 0 0 0 7-7v-34a7.0077 7.0077 0 0 0 -7-7zm-20 52h-6v-4h6zm23-11a3.0088 3.0088 0 0 1 -3 3h-46a3.0088 3.0088 0 0 1 -3-3v-1h52zm0-5h-52v-29a3.0088 3.0088 0 0 1 3-3h46a3.0088 3.0088 0 0 1 3 3z"></path><path d="m29 52h6v4h-6z" fill="#f7f3e9"></path><path d="m58 44v1a3.0088 3.0088 0 0 1 -3 3h-46a3.0088 3.0088 0 0 1 -3-3v-1z" fill="#f7f3e9"></path><path d="m55 8h-46a3.0088 3.0088 0 0 0 -3 3v29h52v-29a3.0088 3.0088 0 0 0 -3-3zm-3.2 22.86a1.9723 1.9723 0 0 1 -1.17 1.04l-6.3 2.1a38.88 38.88 0 0 1 -12.33 2 38.88 38.88 0 0 1 -12.33-2l-6.3-2.1a2.0091 2.0091 0 0 1 -1.24-2.6l6-16a1.9975 1.9975 0 0 1 2.76-1.09l4.43 2.21a15.1473 15.1473 0 0 0 13.36 0l4.43-2.21a1.9975 1.9975 0 0 1 2.76 1.09l6 16a1.969 1.969 0 0 1 -.07 1.56z" fill="#e2f3f5"></path><path d="m51.87 29.3-6-16a1.9975 1.9975 0 0 0 -2.76-1.09l-4.43 2.21a15.1473 15.1473 0 0 1 -13.36 0l-4.43-2.21a1.9975 1.9975 0 0 0 -2.76 1.09l-6 16a2.0091 2.0091 0 0 0 1.24 2.6l6.3 2.1a38.88 38.88 0 0 0 12.33 2 38.88 38.88 0 0 0 12.33-2l6.3-2.1a2.0091 2.0091 0 0 0 1.24-2.6zm-8.81.91a35.1567 35.1567 0 0 1 -22.12 0l-4.34-1.45 4.49-11.98 2.44 1.22a19.2371 19.2371 0 0 0 16.94 0l2.44-1.22 4.49 11.98z"></path><path d="m47.4 28.76-4.34 1.45a35.1567 35.1567 0 0 1 -22.12 0l-4.34-1.45 4.49-11.98 2.44 1.22a19.2371 19.2371 0 0 0 16.94 0l2.44-1.22z" fill="#666"></path></svg>