<!-- icon666.com - MILLIONS vector ICONS FREE --><svg xmlns="http://www.w3.org/2000/svg" id="Line" viewBox="0 0 64 64"><circle cx="53" cy="41" r="2" style="fill:#c4a2fc"></circle><path d="M51.5,25A13.97609,13.97609,0,0,0,41,29.78711,13.97607,13.97607,0,0,0,30.5,25C24.05127,25,19,30.71045,19,38a15.47532,15.47532,0,0,0,.13495,2h6.24689l2.72363-5.44727a1.00207,1.00207,0,0,1,1.84326.13086l3.19482,9.58448,3.94629-8.68164a1.00183,1.00183,0,0,1,1.76758-.10108L41.56641,40H49.142a4,4,0,1,1,0,2H41a.99915.99915,0,0,1-.85742-.48535l-2.02051-3.36719-4.21191,9.26611a1.00008,1.00008,0,0,1-1.85889-.09716l-3.23633-9.71-1.92041,3.84082A.99985.99985,0,0,1,26,42H19.52124c1.423,5.56329,6.31152,13.43243,21.02661,20.89209a1.00123,1.00123,0,0,0,.9043,0C60.2002,53.3877,63,43.2168,63,38,63,30.71045,57.94824,25,51.5,25Z" style="fill:#c4a2fc"></path><path d="M42,1a8.99393,8.99393,0,0,0-3,17.47491V22a.99974.99974,0,0,0,1,1h1V34a9.01045,9.01045,0,0,1-8,8.941V38.9201A7.005,7.005,0,0,0,39,32V29a7.00818,7.00818,0,0,0-7-7H20.90967A6.00448,6.00448,0,0,0,15,17H7A6,6,0,0,0,7,29h8a6.00448,6.00448,0,0,0,5.90967-5H32a5.00588,5.00588,0,0,1,5,5v3a5.00837,5.00837,0,0,1-4,4.89893V34a3.00328,3.00328,0,0,0-3-3H4a3.00328,3.00328,0,0,0-3,3V48a3.00328,3.00328,0,0,0,3,3H30a3.00328,3.00328,0,0,0,3-3V44.94934A11.01125,11.01125,0,0,0,43,34V23h1a.99974.99974,0,0,0,1-1V18.47491A8.99393,8.99393,0,0,0,42,1ZM13,19v8H9V19ZM3,23a4.00458,4.00458,0,0,1,4-4v8A4.00458,4.00458,0,0,1,3,23Zm12,4V19a4,4,0,0,1,0,8ZM9,33H25v7H9ZM31,48a1.0013,1.0013,0,0,1-1,1H4a1.0013,1.0013,0,0,1-1-1V34a1.0013,1.0013,0,0,1,1-1H7v8a1,1,0,0,0,1,1H26a1,1,0,0,0,1-1V33h3a1.0013,1.0013,0,0,1,1,1ZM43,21H41V18.941a8.50981,8.50981,0,0,0,2,0Zm-1-4a7.00245,7.00245,0,0,1-6.31488-4H48.31488A7.00245,7.00245,0,0,1,42,17Zm6.92017-6H43.387l1.56122-4.68359a.99964.99964,0,1,0-1.89648-.63282L41.2796,11H35.0799a7.00019,7.00019,0,1,1,13.84027,0Z" style="fill:#151a6a"></path></svg>